<?xml version="1.0" encoding="UTF-8"?>
<!DOCTYPE svg PUBLIC "-//W3C//DTD SVG 1.1//EN" "http://www.w3.org/Graphics/SVG/1.1/DTD/svg11.dtd">
<svg xmlns="http://www.w3.org/2000/svg" version="1.1" width="201px" height="254px" style="shape-rendering:geometricPrecision; text-rendering:geometricPrecision; image-rendering:optimizeQuality; fill-rule:evenodd; clip-rule:evenodd" xmlns:xlink="http://www.w3.org/1999/xlink">
<g><path style="opacity:1" fill="#e8eaea" d="M -0.5,-0.5 C 66.5,-0.5 133.5,-0.5 200.5,-0.5C 200.5,37.1667 200.5,74.8333 200.5,112.5C 196.268,110.771 195.601,111.604 198.5,115C 195.9,115.883 193.733,117.383 192,119.5C 190.933,118.809 189.766,118.309 188.5,118C 191.275,115.019 190.775,113.853 187,114.5C 186.383,113.551 186.549,112.718 187.5,112C 187.167,111.833 186.833,111.667 186.5,111.5C 186.067,117.054 184.734,117.554 182.5,113C 181.833,112.333 181.167,112.333 180.5,113C 183.76,118.108 187.76,122.775 192.5,127C 191.643,127.689 190.977,128.522 190.5,129.5C 189.972,131.385 190.638,133.052 192.5,134.5C 192.333,135.167 192.167,135.833 192,136.5C 191.716,134.114 190.716,133.448 189,134.5C 186.33,132.995 184.164,130.995 182.5,128.5C 177.616,129.676 175.782,132.342 177,136.5C 178.399,137.227 179.899,137.727 181.5,138C 180.833,138.333 180.167,138.667 179.5,139C 181.394,140.101 182.061,141.434 181.5,143C 178.894,143.45 177.561,144.95 177.5,147.5C 175.4,147.523 173.567,146.856 172,145.5C 170.286,146.076 169.119,147.243 168.5,149C 169.549,149.492 170.549,149.326 171.5,148.5C 171.915,151.079 173.248,152.913 175.5,154C 173.699,154.317 173.366,154.984 174.5,156C 173.299,156.903 172.465,158.069 172,159.5C 170.833,158.333 169.667,157.167 168.5,156C 170.686,155.396 170.852,154.23 169,152.5C 168.333,153.833 167.667,153.833 167,152.5C 166.837,154.676 166.004,156.509 164.5,158C 163.946,160.612 164.613,163.112 166.5,165.5C 165.132,166.594 163.965,166.26 163,164.5C 161.312,165.325 161.145,166.325 162.5,167.5C 161.675,168.386 160.675,168.719 159.5,168.5C 159.119,170.942 159.786,171.609 161.5,170.5C 163.271,171.035 163.604,171.869 162.5,173C 163.191,174.067 163.691,175.234 164,176.5C 165.465,175.631 166.631,176.131 167.5,178C 167.056,179.762 166.556,179.595 166,177.5C 164.992,177.982 163.825,178.148 162.5,178C 162.665,179.117 162.998,180.284 163.5,181.5C 162.833,181.833 162.167,182.167 161.5,182.5C 162.99,183.826 164.324,185.326 165.5,187C 162.506,190.235 161.172,189.401 161.5,184.5C 159.5,184.167 157.5,183.833 155.5,183.5C 150.71,174.593 145.877,165.593 141,156.5C 137.608,154.944 134.775,155.611 132.5,158.5C 126.613,161.026 120.78,163.693 115,166.5C 115.809,169.822 116.976,173.155 118.5,176.5C 115.869,175.131 115.202,175.798 116.5,178.5C 115.482,179.852 114.149,180.852 112.5,181.5C 113.025,182.192 113.692,182.692 114.5,183C 113.333,183.5 112.5,184.333 112,185.5C 111.667,184.833 111.333,184.167 111,183.5C 109.167,186.333 107.667,186.167 106.5,183C 110.554,181.059 110.22,180.225 105.5,180.5C 105.5,182.167 105.5,183.833 105.5,185.5C 103.416,186.248 101.416,186.248 99.5,185.5C 98.5224,185.977 97.6891,186.643 97,187.5C 94.7998,186.452 94.2998,184.952 95.5,183C 91.9589,181.929 91.2922,180.263 93.5,178C 92.5509,177.383 91.7175,177.549 91,178.5C 89.3851,176.989 89.3851,175.656 91,174.5C 92,174.833 93,175.167 94,175.5C 94.4828,174.552 94.6495,173.552 94.5,172.5C 89.2774,172.795 88.2774,170.962 91.5,167C 92.646,166.355 93.646,165.522 94.5,164.5C 95.4255,165.641 96.2588,165.641 97,164.5C 97.7203,162.888 97.5536,161.388 96.5,160C 99.2194,156.156 102.719,153.322 107,151.5C 108,152.167 109,152.833 110,153.5C 111.924,153.348 113.758,153.348 115.5,153.5C 116.479,154.765 117.479,156.099 118.5,157.5C 122.531,155.484 126.531,153.484 130.5,151.5C 128.833,148.167 127.167,144.833 125.5,141.5C 140.343,131.14 149.676,117.14 153.5,99.5C 155.153,92.7382 155.82,85.7382 155.5,78.5C 152.641,49.3183 137.641,29.3183 110.5,18.5C 98.4079,13.6937 86.0746,12.3604 73.5,14.5C 44.8667,19.8108 25.8667,36.1441 16.5,63.5C 15.3523,62.105 14.3523,62.2716 13.5,64C 14.428,64.3879 15.0946,65.0546 15.5,66C 13.4819,68.1716 13.1485,70.505 14.5,73C 13.646,74.0217 12.646,74.8551 11.5,75.5C 12.017,73.9815 11.3504,72.6482 9.5,71.5C 6.93487,69.5639 4.26821,67.7306 1.5,66C 3.16667,65.6667 4.83333,65.3333 6.5,65C 5.23409,64.6905 4.06743,64.1905 3,63.5C 2.66667,63.8333 2.33333,64.1667 2,64.5C 1.2917,63.6195 0.458367,62.9528 -0.5,62.5C -0.5,41.5 -0.5,20.5 -0.5,-0.5 Z"/></g>
<g><path style="opacity:1" fill="#131919" d="M 73.5,14.5 C 86.0746,12.3604 98.4079,13.6937 110.5,18.5C 111.153,19.8068 111.82,21.1401 112.5,22.5C 115.273,23.2525 117.94,24.2525 120.5,25.5C 126.441,30.62 132.108,35.9533 137.5,41.5C 142.607,48.7121 146.94,56.3788 150.5,64.5C 153.484,65.9521 154.151,68.1188 152.5,71C 153.824,73.4938 154.824,75.9938 155.5,78.5C 155.82,85.7382 155.153,92.7382 153.5,99.5C 153.665,96.1501 153.498,92.8168 153,89.5C 152.535,88.0692 151.701,86.9025 150.5,86C 151.428,85.6121 152.095,84.9454 152.5,84C 149.806,78.7415 147.64,73.2415 146,67.5C 145.31,66.2617 144.81,66.2617 144.5,67.5C 135.089,41.7627 116.756,27.096 89.5,23.5C 92.1873,23.6641 94.854,23.4974 97.5,23C 96.2068,22.51 94.8734,22.3433 93.5,22.5C 92.1876,19.4644 89.8542,17.2978 86.5,16C 82.118,15.7083 77.7847,15.2083 73.5,14.5 Z"/></g>
<g><path style="opacity:1" fill="#252a2b" d="M 110.5,18.5 C 137.641,29.3183 152.641,49.3183 155.5,78.5C 154.824,75.9938 153.824,73.4938 152.5,71C 154.151,68.1188 153.484,65.9521 150.5,64.5C 146.94,56.3788 142.607,48.7121 137.5,41.5C 132.108,35.9533 126.441,30.62 120.5,25.5C 117.94,24.2525 115.273,23.2525 112.5,22.5C 111.82,21.1401 111.153,19.8068 110.5,18.5 Z"/></g>
<g><path style="opacity:1" fill="#a4a8a8" d="M 89.5,23.5 C 116.756,27.096 135.089,41.7627 144.5,67.5C 147.066,77.6434 147.066,87.6434 144.5,97.5C 145.001,87.5009 144.001,77.6676 141.5,68C 138.728,64.6217 136.894,60.7884 136,56.5C 133.289,52.2877 129.789,48.9544 125.5,46.5C 125.297,44.9557 124.63,43.6223 123.5,42.5C 115.021,36.2662 105.688,31.4329 95.5,28C 82.6695,25.642 70.0029,26.142 57.5,29.5C 60.6453,26.9335 64.312,25.4335 68.5,25C 75.4453,23.7703 82.4453,23.2703 89.5,23.5 Z"/></g>
<g><path style="opacity:1" fill="#eff1f1" d="M 136.5,116.5 C 122.486,135.668 103.486,144.334 79.5,142.5C 77.9739,140.87 75.9739,140.037 73.5,140C 75.0441,139.71 76.3774,139.044 77.5,138C 74.7395,136.861 72.0728,136.194 69.5,136C 73.1244,136.013 76.1244,134.68 78.5,132C 77.1667,130.667 77.1667,129.333 78.5,128C 77.8333,127.667 77.1667,127.333 76.5,127C 78.6889,124.432 81.1889,122.265 84,120.5C 85.3985,121.051 86.7318,121.384 88,121.5C 88.49,120.207 88.6567,118.873 88.5,117.5C 90.1788,117.715 91.1788,117.048 91.5,115.5C 90.88,109.074 91.5467,103.074 93.5,97.5C 97.9944,101.581 102.994,104.915 108.5,107.5C 115.465,104.688 122.465,101.854 129.5,99C 120.5,92 111.5,85 102.5,78C 106.562,76.5515 110.395,74.7182 114,72.5C 114.956,68.0748 113.123,66.4082 108.5,67.5C 105.781,66.087 102.781,65.4203 99.5,65.5C 96.8127,65.6641 94.146,65.4974 91.5,65C 90.6634,63.9887 90.33,62.8221 90.5,61.5C 92.3451,54.7408 90.0118,49.5742 83.5,46C 78.112,43.692 73.112,44.192 68.5,47.5C 60.2156,52.2213 58.3822,58.888 63,67.5C 64.8734,69.7089 67.04,71.5422 69.5,73C 65.7886,78.2558 61.9552,83.4225 58,88.5C 56.7978,90.6775 56.2978,93.0108 56.5,95.5C 62.0584,95.8027 66.5584,93.8027 70,89.5C 70.0884,98.8539 69.5884,108.187 68.5,117.5C 67.6787,120.641 67.1787,123.975 67,127.5C 63.274,128.456 62.1073,130.623 63.5,134C 61.597,134.774 59.9304,134.44 58.5,133C 61.2636,131.456 61.0969,130.289 58,129.5C 57.586,129.957 57.086,130.291 56.5,130.5C 55.646,129.478 54.646,128.645 53.5,128C 53.8333,127.667 54.1667,127.333 54.5,127C 52.913,126.138 51.2464,125.471 49.5,125C 50.1667,124.667 50.8333,124.333 51.5,124C 48.4919,122.387 45.4919,120.387 42.5,118C 44.6574,116.915 44.8241,115.749 43,114.5C 42.6924,115.308 42.1924,115.975 41.5,116.5C 36.4026,113.663 35.4026,109.83 38.5,105C 37.8333,104.667 37.1667,104.333 36.5,104C 38.5212,103.599 39.8545,102.432 40.5,100.5C 39.675,99.6143 38.675,99.281 37.5,99.5C 37.7804,96.6118 36.4471,95.1118 33.5,95C 37.449,94.1932 37.449,93.6932 33.5,93.5C 32.0629,91.0598 31.2296,88.3931 31,85.5C 30.3457,86.6956 29.8457,86.6956 29.5,85.5C 30.376,84.7492 31.376,84.2492 32.5,84C 32.1667,83.6667 31.8333,83.3333 31.5,83C 33.0975,79.9339 34.7642,76.7672 36.5,73.5C 36.5177,71.6274 36.0177,71.2941 35,72.5C 34.5,72 34,71.5 33.5,71C 38.2338,69.9841 38.5672,67.9841 34.5,65C 35.1667,64.6667 35.8333,64.3333 36.5,64C 35.624,62.414 34.624,60.914 33.5,59.5C 34.8874,54.9556 37.5541,51.4556 41.5,49C 40.8333,48.6667 40.1667,48.3333 39.5,48C 41.1066,46.951 41.7733,45.451 41.5,43.5C 48.0408,42.3733 54.0408,40.04 59.5,36.5C 64.9698,34.3827 70.6364,33.0494 76.5,32.5C 83.7896,32.8681 91.1229,34.0348 98.5,36C 101.862,38.178 105.529,39.678 109.5,40.5C 113.621,44.3998 118.288,47.5664 123.5,50C 125.872,52.58 127.872,55.4134 129.5,58.5C 130.748,59.0402 131.915,59.7069 133,60.5C 137.284,70.7403 140.117,81.407 141.5,92.5C 141.404,96.1439 140.738,99.6439 139.5,103C 140.458,104.147 140.125,105.147 138.5,106C 139.167,106.333 139.833,106.667 140.5,107C 138.973,109.439 136.973,111.439 134.5,113C 135.823,113.816 136.489,114.983 136.5,116.5 Z"/></g>
<g><path style="opacity:1" fill="#d4d7d6" d="M 125.5,46.5 C 123.072,45.7878 120.739,44.7878 118.5,43.5C 114.833,40.8333 111.167,38.1667 107.5,35.5C 97.7665,33.7534 88.0998,31.7534 78.5,29.5C 71.6221,30.0528 64.9554,31.5528 58.5,34C 51.7242,38.0546 44.7242,41.5546 37.5,44.5C 43.03,37.9681 49.6966,32.9681 57.5,29.5C 70.0029,26.142 82.6695,25.642 95.5,28C 105.688,31.4329 115.021,36.2662 123.5,42.5C 124.63,43.6223 125.297,44.9557 125.5,46.5 Z"/></g>
<g><path style="opacity:1" fill="#e3e6e6" d="M 125.5,46.5 C 129.789,48.9544 133.289,52.2877 136,56.5C 136.894,60.7884 138.728,64.6217 141.5,68C 144.001,77.6676 145.001,87.5009 144.5,97.5C 142.987,104.387 140.32,110.72 136.5,116.5C 136.489,114.983 135.823,113.816 134.5,113C 136.973,111.439 138.973,109.439 140.5,107C 139.833,106.667 139.167,106.333 138.5,106C 140.125,105.147 140.458,104.147 139.5,103C 140.738,99.6439 141.404,96.1439 141.5,92.5C 140.117,81.407 137.284,70.7403 133,60.5C 131.915,59.7069 130.748,59.0402 129.5,58.5C 127.872,55.4134 125.872,52.58 123.5,50C 118.288,47.5664 113.621,44.3998 109.5,40.5C 105.529,39.678 101.862,38.178 98.5,36C 91.1229,34.0348 83.7896,32.8681 76.5,32.5C 70.6364,33.0494 64.9698,34.3827 59.5,36.5C 54.0408,40.04 48.0408,42.3733 41.5,43.5C 41.7733,45.451 41.1066,46.951 39.5,48C 40.1667,48.3333 40.8333,48.6667 41.5,49C 37.5541,51.4556 34.8874,54.9556 33.5,59.5C 34.624,60.914 35.624,62.414 36.5,64C 35.8333,64.3333 35.1667,64.6667 34.5,65C 38.5672,67.9841 38.2338,69.9841 33.5,71C 34,71.5 34.5,72 35,72.5C 36.0177,71.2941 36.5177,71.6274 36.5,73.5C 34.7642,76.7672 33.0975,79.9339 31.5,83C 31.8333,83.3333 32.1667,83.6667 32.5,84C 31.376,84.2492 30.376,84.7492 29.5,85.5C 29.8457,86.6956 30.3457,86.6956 31,85.5C 31.2296,88.3931 32.0629,91.0598 33.5,93.5C 37.449,93.6932 37.449,94.1932 33.5,95C 36.4471,95.1118 37.7804,96.6118 37.5,99.5C 38.675,99.281 39.675,99.6143 40.5,100.5C 39.8545,102.432 38.5212,103.599 36.5,104C 37.1667,104.333 37.8333,104.667 38.5,105C 35.4026,109.83 36.4026,113.663 41.5,116.5C 42.1924,115.975 42.6924,115.308 43,114.5C 44.8241,115.749 44.6574,116.915 42.5,118C 45.4919,120.387 48.4919,122.387 51.5,124C 50.8333,124.333 50.1667,124.667 49.5,125C 51.2464,125.471 52.913,126.138 54.5,127C 54.1667,127.333 53.8333,127.667 53.5,128C 54.646,128.645 55.646,129.478 56.5,130.5C 57.086,130.291 57.586,129.957 58,129.5C 61.0969,130.289 61.2636,131.456 58.5,133C 59.9304,134.44 61.597,134.774 63.5,134C 62.1073,130.623 63.274,128.456 67,127.5C 67.1787,123.975 67.6787,120.641 68.5,117.5C 68.1924,119.924 68.5258,122.257 69.5,124.5C 76.3751,121.23 83.3751,118.23 90.5,115.5C 90.8333,115.5 91.1667,115.5 91.5,115.5C 91.1788,117.048 90.1788,117.715 88.5,117.5C 88.6567,118.873 88.49,120.207 88,121.5C 86.7318,121.384 85.3985,121.051 84,120.5C 81.1889,122.265 78.6889,124.432 76.5,127C 77.1667,127.333 77.8333,127.667 78.5,128C 77.1667,129.333 77.1667,130.667 78.5,132C 76.1244,134.68 73.1244,136.013 69.5,136C 72.0728,136.194 74.7395,136.861 77.5,138C 76.3774,139.044 75.0441,139.71 73.5,140C 75.9739,140.037 77.9739,140.87 79.5,142.5C 49.3013,138.471 31.1347,121.471 25,91.5C 24.2743,84.1308 24.4409,76.7975 25.5,69.5C 26.9238,67.4855 27.5905,65.1522 27.5,62.5C 29.5308,55.706 32.8641,49.706 37.5,44.5C 44.7242,41.5546 51.7242,38.0546 58.5,34C 64.9554,31.5528 71.6221,30.0528 78.5,29.5C 88.0998,31.7534 97.7665,33.7534 107.5,35.5C 111.167,38.1667 114.833,40.8333 118.5,43.5C 120.739,44.7878 123.072,45.7878 125.5,46.5 Z"/></g>
<g><path style="opacity:1" fill="#030c0a" d="M 78.5,53.5 C 79.7281,54.3065 80.7281,55.3065 81.5,56.5C 83.9479,57.4731 86.6146,57.8064 89.5,57.5C 89.3505,56.448 89.5172,55.448 90,54.5C 90.4966,56.8098 90.6633,59.1432 90.5,61.5C 90.33,62.8221 90.6634,63.9887 91.5,65C 94.146,65.4974 96.8127,65.6641 99.5,65.5C 102.219,66.913 105.219,67.5797 108.5,67.5C 113.123,66.4082 114.956,68.0748 114,72.5C 110.395,74.7182 106.562,76.5515 102.5,78C 111.5,85 120.5,92 129.5,99C 122.465,101.854 115.465,104.688 108.5,107.5C 102.994,104.915 97.9944,101.581 93.5,97.5C 92.791,96.596 91.791,96.2627 90.5,96.5C 90.5,102.833 90.5,109.167 90.5,115.5C 83.3751,118.23 76.3751,121.23 69.5,124.5C 68.5258,122.257 68.1924,119.924 68.5,117.5C 69.5884,108.187 70.0884,98.8539 70,89.5C 66.5584,93.8027 62.0584,95.8027 56.5,95.5C 56.2978,93.0108 56.7978,90.6775 58,88.5C 61.9552,83.4225 65.7886,78.2558 69.5,73C 67.04,71.5422 64.8734,69.7089 63,67.5C 58.3822,58.888 60.2156,52.2213 68.5,47.5C 68.5,51.5 70.5,53.5 74.5,53.5C 72.5506,48.6123 74.2172,46.4456 79.5,47C 76.0069,48.7848 75.6736,50.9515 78.5,53.5 Z"/></g>
<g><path style="opacity:1" fill="#a4aaad" d="M 81.5,56.5 C 80.7281,55.3065 79.7281,54.3065 78.5,53.5C 78.5,51.8333 78.5,50.1667 78.5,48.5C 83.8351,48.005 86.3351,50.3384 86,55.5C 84.6439,56.3802 83.1439,56.7135 81.5,56.5 Z"/></g>
<g><path style="opacity:1" fill="#191e1f" d="M 90.5,61.5 C 90.6633,59.1432 90.4966,56.8098 90,54.5C 89.5172,55.448 89.3505,56.448 89.5,57.5C 86.6146,57.8064 83.9479,57.4731 81.5,56.5C 83.1439,56.7135 84.6439,56.3802 86,55.5C 86.3351,50.3384 83.8351,48.005 78.5,48.5C 78.5,50.1667 78.5,51.8333 78.5,53.5C 75.6736,50.9515 76.0069,48.7848 79.5,47C 74.2172,46.4456 72.5506,48.6123 74.5,53.5C 70.5,53.5 68.5,51.5 68.5,47.5C 73.112,44.192 78.112,43.692 83.5,46C 90.0118,49.5742 92.3451,54.7408 90.5,61.5 Z"/></g>
<g><path style="opacity:1" fill="#686a6b" d="M 99.5,65.5 C 102.781,65.4203 105.781,66.087 108.5,67.5C 105.219,67.5797 102.219,66.913 99.5,65.5 Z"/></g>
<g><path style="opacity:1" fill="#85898d" d="M 27.5,62.5 C 27.5905,65.1522 26.9238,67.4855 25.5,69.5C 25.4095,66.8478 26.0762,64.5145 27.5,62.5 Z"/></g>
<g><path style="opacity:1" fill="#090f0f" d="M 73.5,14.5 C 77.7847,15.2083 82.118,15.7083 86.5,16C 89.8542,17.2978 92.1876,19.4644 93.5,22.5C 94.8734,22.3433 96.2068,22.51 97.5,23C 94.854,23.4974 92.1873,23.6641 89.5,23.5C 82.4453,23.2703 75.4453,23.7703 68.5,25C 64.312,25.4335 60.6453,26.9335 57.5,29.5C 49.6966,32.9681 43.03,37.9681 37.5,44.5C 32.8641,49.706 29.5308,55.706 27.5,62.5C 26.0762,64.5145 25.4095,66.8478 25.5,69.5C 24.4409,76.7975 24.2743,84.1308 25,91.5C 31.1347,121.471 49.3013,138.471 79.5,142.5C 103.486,144.334 122.486,135.668 136.5,116.5C 140.32,110.72 142.987,104.387 144.5,97.5C 147.066,87.6434 147.066,77.6434 144.5,67.5C 144.81,66.2617 145.31,66.2617 146,67.5C 147.64,73.2415 149.806,78.7415 152.5,84C 152.095,84.9454 151.428,85.6121 150.5,86C 151.701,86.9025 152.535,88.0692 153,89.5C 153.498,92.8168 153.665,96.1501 153.5,99.5C 149.676,117.14 140.343,131.14 125.5,141.5C 127.167,144.833 128.833,148.167 130.5,151.5C 126.531,153.484 122.531,155.484 118.5,157.5C 117.479,156.099 116.479,154.765 115.5,153.5C 115.205,150.57 113.705,148.57 111,147.5C 85.2589,157.145 61.4256,153.645 39.5,137C 18.2688,116.858 10.6021,92.3585 16.5,63.5C 25.8667,36.1441 44.8667,19.8108 73.5,14.5 Z"/></g>
<g><path style="opacity:1" fill="#3a3f42" d="M 93.5,97.5 C 91.5467,103.074 90.88,109.074 91.5,115.5C 91.1667,115.5 90.8333,115.5 90.5,115.5C 90.5,109.167 90.5,102.833 90.5,96.5C 91.791,96.2627 92.791,96.596 93.5,97.5 Z"/></g>
<g><path style="opacity:1" fill="#e2e4e3" d="M 200.5,112.5 C 200.5,146.5 200.5,180.5 200.5,214.5C 197.001,214.741 196.668,213.908 199.5,212C 197.65,209.982 195.65,208.149 193.5,206.5C 194.167,206.167 194.833,205.833 195.5,205.5C 195.745,203.984 195.745,202.317 195.5,200.5C 194.114,202.17 192.281,203.504 190,204.5C 190.387,206.774 190.554,208.941 190.5,211C 188.208,212.29 186.208,213.957 184.5,216C 180.484,215.787 180.484,216.787 184.5,219C 183.584,219.374 182.75,219.874 182,220.5C 181.119,223.602 179.286,225.936 176.5,227.5C 175.081,226.995 174.415,225.995 174.5,224.5C 174.657,223.127 174.49,221.793 174,220.5C 167.54,208.268 161.373,195.935 155.5,183.5C 157.5,183.833 159.5,184.167 161.5,184.5C 161.172,189.401 162.506,190.235 165.5,187C 164.324,185.326 162.99,183.826 161.5,182.5C 162.167,182.167 162.833,181.833 163.5,181.5C 162.998,180.284 162.665,179.117 162.5,178C 163.825,178.148 164.992,177.982 166,177.5C 166.556,179.595 167.056,179.762 167.5,178C 166.631,176.131 165.465,175.631 164,176.5C 163.691,175.234 163.191,174.067 162.5,173C 163.604,171.869 163.271,171.035 161.5,170.5C 159.786,171.609 159.119,170.942 159.5,168.5C 160.675,168.719 161.675,168.386 162.5,167.5C 161.145,166.325 161.312,165.325 163,164.5C 163.965,166.26 165.132,166.594 166.5,165.5C 164.613,163.112 163.946,160.612 164.5,158C 166.004,156.509 166.837,154.676 167,152.5C 167.667,153.833 168.333,153.833 169,152.5C 170.852,154.23 170.686,155.396 168.5,156C 169.667,157.167 170.833,158.333 172,159.5C 172.465,158.069 173.299,156.903 174.5,156C 173.366,154.984 173.699,154.317 175.5,154C 173.248,152.913 171.915,151.079 171.5,148.5C 170.549,149.326 169.549,149.492 168.5,149C 169.119,147.243 170.286,146.076 172,145.5C 173.567,146.856 175.4,147.523 177.5,147.5C 177.561,144.95 178.894,143.45 181.5,143C 182.061,141.434 181.394,140.101 179.5,139C 180.167,138.667 180.833,138.333 181.5,138C 179.899,137.727 178.399,137.227 177,136.5C 175.782,132.342 177.616,129.676 182.5,128.5C 184.164,130.995 186.33,132.995 189,134.5C 190.716,133.448 191.716,134.114 192,136.5C 192.167,135.833 192.333,135.167 192.5,134.5C 190.638,133.052 189.972,131.385 190.5,129.5C 190.977,128.522 191.643,127.689 192.5,127C 187.76,122.775 183.76,118.108 180.5,113C 181.167,112.333 181.833,112.333 182.5,113C 184.734,117.554 186.067,117.054 186.5,111.5C 186.833,111.667 187.167,111.833 187.5,112C 186.549,112.718 186.383,113.551 187,114.5C 190.775,113.853 191.275,115.019 188.5,118C 189.766,118.309 190.933,118.809 192,119.5C 193.733,117.383 195.9,115.883 198.5,115C 195.601,111.604 196.268,110.771 200.5,112.5 Z"/></g>
<g><path style="opacity:1" fill="#dfe1e1" d="M -0.5,62.5 C 0.458367,62.9528 1.2917,63.6195 2,64.5C 2.33333,64.1667 2.66667,63.8333 3,63.5C 4.06743,64.1905 5.23409,64.6905 6.5,65C 4.83333,65.3333 3.16667,65.6667 1.5,66C 4.26821,67.7306 6.93487,69.5639 9.5,71.5C 11.3504,72.6482 12.017,73.9815 11.5,75.5C 12.646,74.8551 13.646,74.0217 14.5,73C 13.1485,70.505 13.4819,68.1716 15.5,66C 15.0946,65.0546 14.428,64.3879 13.5,64C 14.3523,62.2716 15.3523,62.105 16.5,63.5C 10.6021,92.3585 18.2688,116.858 39.5,137C 61.4256,153.645 85.2589,157.145 111,147.5C 113.705,148.57 115.205,150.57 115.5,153.5C 113.758,153.348 111.924,153.348 110,153.5C 109,152.833 108,152.167 107,151.5C 102.719,153.322 99.2194,156.156 96.5,160C 97.5536,161.388 97.7203,162.888 97,164.5C 96.2588,165.641 95.4255,165.641 94.5,164.5C 93.646,165.522 92.646,166.355 91.5,167C 88.2774,170.962 89.2774,172.795 94.5,172.5C 94.6495,173.552 94.4828,174.552 94,175.5C 93,175.167 92,174.833 91,174.5C 89.3851,175.656 89.3851,176.989 91,178.5C 91.7175,177.549 92.5509,177.383 93.5,178C 91.2922,180.263 91.9589,181.929 95.5,183C 94.2998,184.952 94.7998,186.452 97,187.5C 97.6891,186.643 98.5224,185.977 99.5,185.5C 101.416,186.248 103.416,186.248 105.5,185.5C 105.5,183.833 105.5,182.167 105.5,180.5C 110.22,180.225 110.554,181.059 106.5,183C 107.667,186.167 109.167,186.333 111,183.5C 111.333,184.167 111.667,184.833 112,185.5C 112.5,184.333 113.333,183.5 114.5,183C 113.692,182.692 113.025,182.192 112.5,181.5C 114.149,180.852 115.482,179.852 116.5,178.5C 115.202,175.798 115.869,175.131 118.5,176.5C 122.596,182.356 125.93,188.689 128.5,195.5C 128.703,199.268 128.703,203.102 128.5,207C 128.667,207.833 128.833,208.667 129,209.5C 130.138,205.65 131.304,205.65 132.5,209.5C 132.081,210.672 131.415,211.672 130.5,212.5C 131.506,213.396 131.506,214.062 130.5,214.5C 129.719,213.271 129.219,211.938 129,210.5C 128.667,210.833 128.333,211.167 128,211.5C 127.5,210.333 126.667,209.5 125.5,209C 126.016,206.967 125.35,206.967 123.5,209C 124.328,209.915 125.328,210.581 126.5,211C 125.725,213.29 126.558,215.124 129,216.5C 129.973,218.392 130.64,220.392 131,222.5C 131.903,223.701 133.069,224.535 134.5,225C 131.614,225.606 129.448,227.106 128,229.5C 126.649,227.981 125.149,226.648 123.5,225.5C 124.59,224.391 124.59,223.391 123.5,222.5C 122.232,223.428 120.899,223.595 119.5,223C 120.928,219.526 120.428,219.026 118,221.5C 115.239,220.204 112.405,219.037 109.5,218C 109.833,217.667 110.167,217.333 110.5,217C 107.99,214.989 105.657,212.822 103.5,210.5C 102.534,212.396 102.201,214.396 102.5,216.5C 104.103,216.312 105.437,216.812 106.5,218C 105.551,218.617 104.718,218.451 104,217.5C 103.82,219.488 103.986,221.488 104.5,223.5C 101.692,223.031 99.3582,221.697 97.5,219.5C 97.6283,216.807 98.6283,214.141 100.5,211.5C 100.167,211.167 99.8333,210.833 99.5,210.5C 98.1502,211.95 96.4835,212.617 94.5,212.5C 94.2865,214.144 94.6198,215.644 95.5,217C 93.5516,217.983 91.7183,219.15 90,220.5C 89.3333,219.833 89.3333,219.167 90,218.5C 94.4813,216.791 94.648,215.957 90.5,216C 88.4873,214.209 88.4873,212.875 90.5,212C 89.8333,211.667 89.1667,211.333 88.5,211C 90.2112,209.867 90.7112,208.367 90,206.5C 87.9648,206.271 85.7981,205.438 83.5,204C 80.9205,201.2 79.0872,198.366 78,195.5C 76.4173,197.055 74.584,198.222 72.5,199C 73.1667,199.333 73.8333,199.667 74.5,200C 73.2125,201.41 72.0458,202.91 71,204.5C 70.2276,203.151 69.0609,202.318 67.5,202C 67.8333,201.667 68.1667,201.333 68.5,201C 67.0069,199.632 65.5069,199.465 64,200.5C 63.2766,196.082 60.9433,194.749 57,196.5C 54.3569,194.819 51.5235,192.652 48.5,190C 50.9365,188.404 51.4365,186.571 50,184.5C 48.7212,186.937 47.2212,187.437 45.5,186C 47.3008,185.683 47.6341,185.016 46.5,184C 44.7703,182.148 43.6036,182.314 43,184.5C 41.548,183.093 41.7147,181.593 43.5,180C 38.4934,177.662 34.9934,174.162 33,169.5C 36.3333,168.5 36.3333,167.5 33,166.5C 32.1376,164.913 31.4709,163.246 31,161.5C 28.5336,161.37 25.7003,161.037 22.5,160.5C 22.5,159.5 22.5,158.5 22.5,157.5C 19.1908,156.758 16.3575,155.091 14,152.5C 13.8782,154.169 14.2115,155.835 15,157.5C 16.073,156.72 17.2396,156.887 18.5,158C 17.8333,158.333 17.1667,158.667 16.5,159C 18.5593,160.185 18.726,161.352 17,162.5C 16.3333,161.833 15.6667,161.167 15,160.5C 13.2785,160.611 13.1118,161.111 14.5,162C 9.64546,162.115 9.31213,160.781 13.5,158C 10.3246,156.423 9.99125,154.59 12.5,152.5C 12.0814,151.328 11.4147,150.328 10.5,149.5C 6.63272,150.487 6.63272,149.987 10.5,148C 8.56429,147.187 6.56429,146.687 4.5,146.5C 4.7035,144.61 4.03683,143.11 2.5,142C 4.39335,139.083 4.89335,135.916 4,132.5C 3.66667,132.833 3.33333,133.167 3,133.5C 2.9428,131.09 1.77613,129.756 -0.5,129.5C -0.5,107.167 -0.5,84.8333 -0.5,62.5 Z"/></g>
<g><path style="opacity:1" fill="#040d0c" d="M 171.5,227.5 C 165.133,232.85 157.8,235.684 149.5,236C 142.598,222.36 135.598,208.86 128.5,195.5C 125.93,188.689 122.596,182.356 118.5,176.5C 116.976,173.155 115.809,169.822 115,166.5C 120.78,163.693 126.613,161.026 132.5,158.5C 133.583,158.461 134.583,158.127 135.5,157.5C 138.817,165.468 142.651,173.134 147,180.5C 149.237,182.281 151.237,184.281 153,186.5C 155.561,192.725 158.561,198.725 162,204.5C 162.333,206.5 162.667,208.5 163,210.5C 167.771,215.13 170.604,220.796 171.5,227.5 Z"/></g>
<g><path style="opacity:1" fill="#263032" d="M 155.5,183.5 C 161.373,195.935 167.54,208.268 174,220.5C 174.49,221.793 174.657,223.127 174.5,224.5C 173.728,225.694 172.728,226.694 171.5,227.5C 170.604,220.796 167.771,215.13 163,210.5C 162.667,208.5 162.333,206.5 162,204.5C 158.561,198.725 155.561,192.725 153,186.5C 151.237,184.281 149.237,182.281 147,180.5C 142.651,173.134 138.817,165.468 135.5,157.5C 134.583,158.127 133.583,158.461 132.5,158.5C 134.775,155.611 137.608,154.944 141,156.5C 145.877,165.593 150.71,174.593 155.5,183.5 Z"/></g>
<g><path style="opacity:1" fill="#d9dbda" d="M -0.5,129.5 C 1.77613,129.756 2.9428,131.09 3,133.5C 3.33333,133.167 3.66667,132.833 4,132.5C 4.89335,135.916 4.39335,139.083 2.5,142C 4.03683,143.11 4.7035,144.61 4.5,146.5C 6.56429,146.687 8.56429,147.187 10.5,148C 6.63272,149.987 6.63272,150.487 10.5,149.5C 11.4147,150.328 12.0814,151.328 12.5,152.5C 9.99125,154.59 10.3246,156.423 13.5,158C 9.31213,160.781 9.64546,162.115 14.5,162C 13.1118,161.111 13.2785,160.611 15,160.5C 15.6667,161.167 16.3333,161.833 17,162.5C 18.726,161.352 18.5593,160.185 16.5,159C 17.1667,158.667 17.8333,158.333 18.5,158C 17.2396,156.887 16.073,156.72 15,157.5C 14.2115,155.835 13.8782,154.169 14,152.5C 16.3575,155.091 19.1908,156.758 22.5,157.5C 22.5,158.5 22.5,159.5 22.5,160.5C 25.7003,161.037 28.5336,161.37 31,161.5C 31.4709,163.246 32.1376,164.913 33,166.5C 36.3333,167.5 36.3333,168.5 33,169.5C 34.9934,174.162 38.4934,177.662 43.5,180C 41.7147,181.593 41.548,183.093 43,184.5C 43.6036,182.314 44.7703,182.148 46.5,184C 47.6341,185.016 47.3008,185.683 45.5,186C 47.2212,187.437 48.7212,186.937 50,184.5C 51.4365,186.571 50.9365,188.404 48.5,190C 51.5235,192.652 54.3569,194.819 57,196.5C 60.9433,194.749 63.2766,196.082 64,200.5C 65.5069,199.465 67.0069,199.632 68.5,201C 68.1667,201.333 67.8333,201.667 67.5,202C 69.0609,202.318 70.2276,203.151 71,204.5C 72.0458,202.91 73.2125,201.41 74.5,200C 73.8333,199.667 73.1667,199.333 72.5,199C 74.584,198.222 76.4173,197.055 78,195.5C 79.0872,198.366 80.9205,201.2 83.5,204C 85.7981,205.438 87.9648,206.271 90,206.5C 90.7112,208.367 90.2112,209.867 88.5,211C 89.1667,211.333 89.8333,211.667 90.5,212C 88.4873,212.875 88.4873,214.209 90.5,216C 94.648,215.957 94.4813,216.791 90,218.5C 89.3333,219.167 89.3333,219.833 90,220.5C 91.7183,219.15 93.5516,217.983 95.5,217C 94.6198,215.644 94.2865,214.144 94.5,212.5C 96.4835,212.617 98.1502,211.95 99.5,210.5C 99.8333,210.833 100.167,211.167 100.5,211.5C 98.6283,214.141 97.6283,216.807 97.5,219.5C 99.3582,221.697 101.692,223.031 104.5,223.5C 103.986,221.488 103.82,219.488 104,217.5C 104.718,218.451 105.551,218.617 106.5,218C 105.437,216.812 104.103,216.312 102.5,216.5C 102.201,214.396 102.534,212.396 103.5,210.5C 105.657,212.822 107.99,214.989 110.5,217C 110.167,217.333 109.833,217.667 109.5,218C 112.405,219.037 115.239,220.204 118,221.5C 120.428,219.026 120.928,219.526 119.5,223C 120.899,223.595 122.232,223.428 123.5,222.5C 124.59,223.391 124.59,224.391 123.5,225.5C 125.149,226.648 126.649,227.981 128,229.5C 129.448,227.106 131.614,225.606 134.5,225C 133.069,224.535 131.903,223.701 131,222.5C 130.64,220.392 129.973,218.392 129,216.5C 126.558,215.124 125.725,213.29 126.5,211C 125.328,210.581 124.328,209.915 123.5,209C 125.35,206.967 126.016,206.967 125.5,209C 126.667,209.5 127.5,210.333 128,211.5C 128.333,211.167 128.667,210.833 129,210.5C 129.219,211.938 129.719,213.271 130.5,214.5C 131.506,214.062 131.506,213.396 130.5,212.5C 131.415,211.672 132.081,210.672 132.5,209.5C 131.304,205.65 130.138,205.65 129,209.5C 128.833,208.667 128.667,207.833 128.5,207C 128.703,203.102 128.703,199.268 128.5,195.5C 135.598,208.86 142.598,222.36 149.5,236C 157.8,235.684 165.133,232.85 171.5,227.5C 172.728,226.694 173.728,225.694 174.5,224.5C 174.415,225.995 175.081,226.995 176.5,227.5C 179.286,225.936 181.119,223.602 182,220.5C 182.75,219.874 183.584,219.374 184.5,219C 180.484,216.787 180.484,215.787 184.5,216C 186.208,213.957 188.208,212.29 190.5,211C 190.554,208.941 190.387,206.774 190,204.5C 192.281,203.504 194.114,202.17 195.5,200.5C 195.745,202.317 195.745,203.984 195.5,205.5C 194.833,205.833 194.167,206.167 193.5,206.5C 195.65,208.149 197.65,209.982 199.5,212C 196.668,213.908 197.001,214.741 200.5,214.5C 200.5,227.5 200.5,240.5 200.5,253.5C 133.5,253.5 66.5,253.5 -0.5,253.5C -0.5,212.167 -0.5,170.833 -0.5,129.5 Z"/></g>
</svg>
